<?xml version="1.0" encoding="UTF-8"?>
<svg width="400" height="300" viewBox="0 0 400 300" xmlns="http://www.w3.org/2000/svg">
  <style>
    .runner { fill: #FF5733; }
    .shadow { fill: #252525; opacity: 0.2; }
    .ground { fill: #333; }
    .accent { fill: #FF8C33; }
  </style>
  
  <!-- Фон -->
  <rect x="0" y="0" width="400" height="300" fill="#212529" />
  
  <!-- Земля -->
  <path class="ground" d="M0,250 L400,250 L400,300 L0,300 Z" />
  
  <!-- Тень -->
  <ellipse class="shadow" cx="200" cy="270" rx="120" ry="10" />
  
  <!-- Фигура бегуна -->
  <g transform="translate(150, 100)">
    <!-- Голова -->
    <circle class="runner" cx="60" cy="40" r="20" />
    
    <!-- Туловище -->
    <path class="runner" d="M60,60 L60,130 Q60,140 50,140 L45,140 Q35,140 35,130 L35,100 Q35,90 25,90 L20,90 Q10,90 10,100 L10,160" stroke="#FF5733" stroke-width="10" fill="none" stroke-linecap="round" />
    
    <!-- Руки -->
    <path class="runner" d="M60,70 L30,100" stroke="#FF5733" stroke-width="10" fill="none" stroke-linecap="round" />
    <path class="runner" d="M60,70 L100,50" stroke="#FF5733" stroke-width="10" fill="none" stroke-linecap="round" />
    
    <!-- Ноги -->
    <path class="runner" d="M60,130 L80,180" stroke="#FF5733" stroke-width="10" fill="none" stroke-linecap="round" />
    <path class="runner" d="M60,130 L30,170" stroke="#FF5733" stroke-width="10" fill="none" stroke-linecap="round" />
    
    <!-- Детали (акцент) -->
    <path class="accent" d="M70,40 A10,10 0 0,1 50,40" stroke="#FF8C33" stroke-width="3" fill="none" />
    <circle class="accent" cx="50" cy="35" r="3" />
    <circle class="accent" cx="70" cy="35" r="3" />
  </g>
  
  <!-- Скорость (линии) -->
  <g stroke="#FF5733" stroke-width="2" stroke-dasharray="10,5">
    <line x1="100" y1="50" x2="50" y2="50" />
    <line x1="100" y1="70" x2="50" y2="70" />
    <line x1="100" y1="90" x2="50" y2="90" />
    <line x1="100" y1="110" x2="50" y2="110" />
    <line x1="100" y1="130" x2="50" y2="130" />
    <line x1="100" y1="150" x2="50" y2="150" />
  </g>
  
  <!-- Элементы пути -->
  <g fill="#444" opacity="0.6">
    <circle cx="80" cy="260" r="5" />
    <circle cx="120" cy="260" r="5" />
    <circle cx="160" cy="260" r="5" />
    <circle cx="200" cy="260" r="5" />
    <circle cx="240" cy="260" r="5" />
    <circle cx="280" cy="260" r="5" />
    <circle cx="320" cy="260" r="5" />
  </g>
</svg>